<?xml version="1.0" encoding="UTF-8"?>
<!DOCTYPE svg PUBLIC "-//W3C//DTD SVG 1.1//EN" "http://www.w3.org/Graphics/SVG/1.1/DTD/svg11.dtd">
<!-- Creator: CorelDRAW 2021 (64-Bit) -->
<svg xmlns="http://www.w3.org/2000/svg" xml:space="preserve" width="500px" height="277px" version="1.1" style="shape-rendering:geometricPrecision; text-rendering:geometricPrecision; image-rendering:optimizeQuality; fill-rule:evenodd; clip-rule:evenodd"
viewBox="0 0 135.61 75.2"
 xmlns:xlink="http://www.w3.org/1999/xlink"
 xmlns:xodm="http://www.corel.com/coreldraw/odm/2003">
 <defs>
  <style type="text/css">
   <![CDATA[
    .fil6 {fill:#20A8E0;fill-rule:nonzero}
    .fil13 {fill:#24A9E1;fill-rule:nonzero}
    .fil15 {fill:#25ADE3;fill-rule:nonzero}
    .fil40 {fill:#26ACE3;fill-rule:nonzero}
    .fil27 {fill:#2AAEE4;fill-rule:nonzero}
    .fil30 {fill:#2DAEE4;fill-rule:nonzero}
    .fil0 {fill:#35B0E5;fill-rule:nonzero}
    .fil32 {fill:#39B1E4;fill-rule:nonzero}
    .fil8 {fill:#3BB0E3;fill-rule:nonzero}
    .fil4 {fill:#3FB3E5;fill-rule:nonzero}
    .fil45 {fill:#49B5E6;fill-rule:nonzero}
    .fil19 {fill:#4BB9E7;fill-rule:nonzero}
    .fil22 {fill:#53BEE8;fill-rule:nonzero}
    .fil51 {fill:#54BCE7;fill-rule:nonzero}
    .fil43 {fill:#59BBE8;fill-rule:nonzero}
    .fil42 {fill:#63C0E9;fill-rule:nonzero}
    .fil65 {fill:#69C5EB;fill-rule:nonzero}
    .fil54 {fill:#6DC5EA;fill-rule:nonzero}
    .fil60 {fill:#6DC5EB;fill-rule:nonzero}
    .fil35 {fill:#74C8EC;fill-rule:nonzero}
    .fil25 {fill:#76CAED;fill-rule:nonzero}
    .fil52 {fill:#8ED3F0;fill-rule:nonzero}
    .fil49 {fill:#A3DDF3;fill-rule:nonzero}
    .fil63 {fill:#C5E9F7;fill-rule:nonzero}
    .fil17 {fill:#E14094;fill-rule:nonzero}
    .fil9 {fill:#E14696;fill-rule:nonzero}
    .fil29 {fill:#E24397;fill-rule:nonzero}
    .fil31 {fill:#E24497;fill-rule:nonzero}
    .fil1 {fill:#E24A99;fill-rule:nonzero}
    .fil20 {fill:#E3509C;fill-rule:nonzero}
    .fil36 {fill:#E3559D;fill-rule:nonzero}
    .fil38 {fill:#E3599F;fill-rule:nonzero}
    .fil5 {fill:#E35A9F;fill-rule:nonzero}
    .fil57 {fill:#E361A3;fill-rule:nonzero}
    .fil23 {fill:#E363A4;fill-rule:nonzero}
    .fil68 {fill:#E3F4FB;fill-rule:nonzero}
    .fil7 {fill:#E461A1;fill-rule:nonzero}
    .fil48 {fill:#E463A4;fill-rule:nonzero}
    .fil41 {fill:#E56AA7;fill-rule:nonzero}
    .fil12 {fill:#E56EA8;fill-rule:nonzero}
    .fil46 {fill:#E77EB1;fill-rule:nonzero}
    .fil24 {fill:#E98AB8;fill-rule:nonzero}
    .fil39 {fill:#EA8CBA;fill-rule:nonzero}
    .fil58 {fill:#EA8EBB;fill-rule:nonzero}
    .fil67 {fill:#EFA5C8;fill-rule:nonzero}
    .fil53 {fill:#EFA9CA;fill-rule:nonzero}
    .fil59 {fill:#F2BAD5;fill-rule:nonzero}
    .fil18 {fill:#F8D4E4;fill-rule:nonzero}
    .fil28 {fill:#FDE93D;fill-rule:nonzero}
    .fil47 {fill:#FDEF75;fill-rule:nonzero}
    .fil61 {fill:#FDF6B5;fill-rule:nonzero}
    .fil16 {fill:#FFEA3E;fill-rule:nonzero}
    .fil33 {fill:#FFEB42;fill-rule:nonzero}
    .fil2 {fill:#FFEB45;fill-rule:nonzero}
    .fil11 {fill:#FFEB55;fill-rule:nonzero}
    .fil37 {fill:#FFEC5B;fill-rule:nonzero}
    .fil10 {fill:#FFEC5C;fill-rule:nonzero}
    .fil21 {fill:#FFED5E;fill-rule:nonzero}
    .fil3 {fill:#FFED5F;fill-rule:nonzero}
    .fil14 {fill:#FFED63;fill-rule:nonzero}
    .fil34 {fill:#FFED69;fill-rule:nonzero}
    .fil44 {fill:#FFEE66;fill-rule:nonzero}
    .fil62 {fill:#FFF17F;fill-rule:nonzero}
    .fil64 {fill:#FFF387;fill-rule:nonzero}
    .fil55 {fill:#FFF388;fill-rule:nonzero}
    .fil26 {fill:#FFF496;fill-rule:nonzero}
    .fil70 {fill:#FFF5A1;fill-rule:nonzero}
    .fil50 {fill:#FFF6AD;fill-rule:nonzero}
    .fil66 {fill:#FFF6B1;fill-rule:nonzero}
    .fil56 {fill:#FFF8CA;fill-rule:nonzero}
    .fil69 {fill:#FFFADA;fill-rule:nonzero}
    .fil71 {fill:#FFFCE3;fill-rule:nonzero}
   ]]>
  </style>
 </defs>
 <g id="Layer_x0020_1">
  <metadata id="CorelCorpID_0Corel-Layer"/>
  <g id="_3034559791424">
   <path class="fil0" d="M126.16 8.17c-0.23,-0.04 -0.57,0.1 -0.71,-0.23 -0.13,-0.31 0.09,-0.55 0.27,-0.75 0.65,-0.74 1.29,-1.47 1.98,-2.16 0.26,-0.26 0.59,-0.53 1,-0.16 0.35,0.33 0.19,0.6 -0.02,0.92 -0.47,0.72 -0.43,1.78 -1.5,2.14 -0.33,0.1 -0.64,0.23 -1.02,0.24z"/>
   <path class="fil1" d="M53.97 9.13c-0.37,-0.03 -0.74,-0.01 -0.89,-0.33 -0.14,-0.29 0.13,-0.5 0.32,-0.71 0.64,-0.72 1.29,-1.45 1.95,-2.16 0.25,-0.28 0.58,-0.42 0.94,-0.2 0.4,0.25 0.22,0.59 0.06,0.91 -0.44,0.87 -0.62,1.94 -1.75,2.29 -0.23,0.07 -0.46,0.14 -0.63,0.2z"/>
   <path class="fil2" d="M89.99 8.18c-0.27,-0.04 -0.59,0.1 -0.74,-0.24 -0.11,-0.28 0.1,-0.46 0.26,-0.64 0.64,-0.74 1.25,-1.49 1.92,-2.2 0.25,-0.26 0.6,-0.55 1.02,-0.26 0.47,0.32 0.11,0.66 -0.01,1 -0.32,0.86 -0.49,1.79 -1.57,2.13 -0.3,0.09 -0.58,0.18 -0.88,0.21z"/>
   <path class="fil3" d="M83.44 9.6c-0.02,0.53 -1.15,1.82 -1.66,1.9 -0.18,0.03 -0.47,-0.04 -0.44,-0.14 0.13,-0.61 0.06,-1.28 0.27,-1.81 0.19,-0.52 0.96,-0.4 1.48,-0.5 0.19,-0.04 0.29,0.34 0.35,0.55z"/>
   <path class="fil4" d="M119.59 9.6c0,0.49 -1.05,1.75 -1.55,1.87 -0.19,0.05 -0.45,0.01 -0.44,-0.14 0.03,-0.6 -0.01,-1.28 0.23,-1.81 0.22,-0.47 0.92,-0.39 1.41,-0.48 0.27,-0.05 0.26,0.35 0.35,0.56z"/>
   <path class="fil5" d="M45.23 12.34c-0.04,-0.71 0.03,-1.45 0.36,-2.03 0.2,-0.36 0.98,-0.56 1.39,-0.32 0.56,0.33 0.04,0.85 -0.08,1.29 -0.31,0.74 -0.71,1.33 -1.67,1.06z"/>
   <path class="fil6" d="M118.51 12.71c-0.2,-0.04 -0.48,0.12 -0.55,-0.13 -0.06,-0.16 0.04,-0.44 0.17,-0.56 0.37,-0.34 0.78,-0.67 1.21,-0.95 0.35,-0.22 0.61,-0.03 0.65,0.37 0.03,0.26 -1.18,1.26 -1.48,1.27z"/>
   <path class="fil7" d="M47.34 11.89c0.91,0.97 -0.68,0.93 -0.69,1.59 -0.01,0.11 -0.78,0.34 -1.12,-0.12 -0.05,-0.06 0.08,-0.25 0.13,-0.38 0.41,-0.59 0.83,-1.17 1.68,-1.09z"/>
   <path class="fil8" d="M123.54 4.58c0.26,-0.88 0.06,-1.89 1.32,-1.71 0.16,0.03 0.36,-0.04 0.44,0.16 0.08,0.2 -0.09,0.31 -0.18,0.45 -0.34,0.55 -0.87,0.82 -1.58,1.1z"/>
   <path class="fil9" d="M51.25 5.29c0.32,-0.63 0.02,-1.64 1.24,-1.56 0.17,0.02 0.36,-0.03 0.45,0.15 0.09,0.17 0.01,0.33 -0.11,0.48 -0.38,0.49 -0.78,0.96 -1.58,0.93z"/>
   <path class="fil10" d="M87.5 4.48c0.12,-0.82 -0.07,-1.74 1.21,-1.62 0.48,0.04 0.52,0.16 0.3,0.57 -0.32,0.59 -0.85,0.82 -1.51,1.05z"/>
   <path class="fil11" d="M98.43 12.45c0.07,-0.28 -0.06,-0.72 0.42,-0.68 0.36,0.04 0.63,0.33 0.6,0.72 -0.02,0.33 -0.26,0.6 -0.59,0.63 -0.49,0.04 -0.37,-0.38 -0.43,-0.67z"/>
   <path class="fil12" d="M53.62 6.02c-0.01,0.4 -0.21,0.72 -0.57,0.77 -0.42,0.06 -0.44,-0.34 -0.44,-0.66 -0.01,-0.31 0,-0.66 0.43,-0.68 0.38,-0.02 0.56,0.21 0.58,0.57z"/>
   <path class="fil13" d="M134.61 12.51c0.07,-0.33 -0.08,-0.76 0.42,-0.73 0.33,0.02 0.6,0.3 0.58,0.64 -0.02,0.35 -0.22,0.71 -0.64,0.7 -0.42,-0.01 -0.28,-0.41 -0.36,-0.61z"/>
   <path class="fil14" d="M89.13 5.91c-0.39,-0.1 -0.34,-0.4 -0.34,-0.67 -0.01,-0.35 0.08,-0.65 0.49,-0.65 0.39,-0.01 0.54,0.27 0.51,0.63 -0.03,0.41 -0.36,0.55 -0.66,0.69z"/>
   <path class="fil15" d="M125.97 5.12c-0.1,0.37 -0.21,0.73 -0.63,0.75 -0.41,0.01 -0.34,-0.36 -0.35,-0.62 -0.02,-0.33 0.07,-0.64 0.48,-0.65 0.34,0 0.47,0.23 0.5,0.52z"/>
   <path class="fil16" d="M83.31 11.1c0.14,0.09 0.38,0.26 0.38,0.27 -0.31,0.51 -0.4,1.25 -1.23,1.23 -0.35,-0.2 -0.73,-0.41 -0.12,-0.75 0.36,-0.2 0.6,-0.57 0.97,-0.75z"/>
   <path class="fil17" d="M62.59 12.68c0.4,0.04 0.59,0.32 0.64,0.63 0.05,0.35 -0.22,0.6 -0.53,0.67 -0.41,0.08 -0.42,-0.26 -0.4,-0.55 0.01,-0.28 -0.12,-0.64 0.29,-0.75z"/>
   <path class="fil18" d="M47.34 11.89c-0.67,0.19 -1.08,0.78 -1.68,1.09 0.03,-0.33 -0.32,-0.4 -0.43,-0.64 0.76,-0.04 1.2,-0.58 1.67,-1.06 -0.01,0.31 0.27,0.43 0.44,0.61z"/>
   <path class="fil16" d="M84.7 7.53c-0.28,0.46 0.07,1.01 -0.54,1.21 -0.17,0.06 -0.35,-0.06 -0.39,-0.26 -0.12,-0.62 0.37,-0.72 0.93,-0.95z"/>
   <path class="fil19" d="M120.9 7.51c-0.23,0.5 0.01,1.05 -0.57,1.24 -0.23,0.08 -0.4,-0.12 -0.41,-0.35 -0.03,-0.59 0.43,-0.68 0.98,-0.89z"/>
   <path class="fil20" d="M48.52 8.3c-0.24,0.6 0.05,1.11 -0.48,1.32 -0.21,0.09 -0.42,-0.06 -0.45,-0.3 -0.09,-0.57 0.42,-0.63 0.93,-1.02z"/>
   <path class="fil3" d="M83.31 11.1c-0.22,0.34 -0.48,0.65 -0.85,0.82 -0.54,0.24 -0.06,0.46 0,0.68 -0.25,0.03 -0.56,0.32 -0.73,-0.02 -0.07,-0.15 0.09,-0.53 0.25,-0.63 0.47,-0.26 0.72,-0.84 1.33,-0.85z"/>
   <path class="fil21" d="M93.57 9.16c-0.05,0.25 -0.13,0.49 -0.39,0.57 -0.27,0.08 -0.36,-0.12 -0.37,-0.35 -0.01,-0.24 -0.05,-0.52 0.31,-0.55 0.23,-0.01 0.4,0.08 0.45,0.33z"/>
   <path class="fil22" d="M129.32 8.82c0.22,0.01 0.42,0.09 0.42,0.35 0.01,0.27 -0.19,0.45 -0.42,0.53 -0.3,0.11 -0.33,-0.15 -0.34,-0.35 -0.02,-0.25 0,-0.5 0.34,-0.53z"/>
   <path class="fil23" d="M57.37 10.12c-0.11,0.21 -0.16,0.5 -0.47,0.5 -0.2,-0.01 -0.26,-0.2 -0.27,-0.39 -0.02,-0.31 0.14,-0.45 0.44,-0.44 0.18,0.01 0.34,0.09 0.3,0.33z"/>
   <path class="fil24" d="M57.2 0.93c0.02,0.48 -0.25,0.52 -0.45,0.61 -0.13,0.06 -0.29,0.02 -0.28,-0.16 0.02,-0.28 0.24,-0.38 0.47,-0.46 0.16,-0.05 0.26,-0.02 0.26,0.01z"/>
   <path class="fil25" d="M129.54 0.21c-0.07,0.27 -0.28,0.38 -0.53,0.42 -0.2,0.04 -0.23,-0.11 -0.2,-0.24 0.05,-0.24 0.27,-0.3 0.46,-0.37 0.14,-0.06 0.26,0.01 0.27,0.19z"/>
   <path class="fil26" d="M92.62 0.59c0.09,-0.35 0.26,-0.59 0.62,-0.58 0.16,0 0.2,0.19 0.15,0.32 -0.16,0.34 -0.44,0.35 -0.77,0.26z"/>
   <path class="fil27" d="M107.08 26.83c-0.57,-1.42 0.78,-1.51 1.47,-1.92 0.7,-0.44 1.18,-0.87 1.51,-1.67 0.32,-0.79 1.28,-1.11 2.07,-1.41 0.42,-0.17 0.32,0.41 0.47,0.64 0.28,0.42 0.22,1.44 1.21,0.8 0.72,0 0.9,-0.52 1.05,-1.08 0.24,-0.29 0.47,-0.61 0.74,-0.88 0.25,-0.26 0.65,-0.5 0.93,-0.26 0.52,0.45 0.98,0.43 1.5,0.07 0.16,-0.11 0.33,-0.11 0.46,0.05 0.2,0.22 0.14,0.45 -0.02,0.67 -0.22,0.3 -0.61,0.49 -0.64,0.92 -0.01,0.24 -0.1,0.52 0.15,0.68 0.23,0.13 0.45,0.03 0.66,-0.15 1.41,-1.2 2.66,-2.54 3.66,-4.11 0.51,-0.8 1.42,-1.07 2.35,-0.79 0.76,0.23 1.57,0.63 2.1,-0.49 0.2,-0.44 0.81,-0.53 1.31,-0.5 0.96,0.04 1.89,-0.04 2.78,-0.71 0.08,1 -0.02,1.79 -0.63,2.49 -0.33,0.37 -0.65,0.84 -0.19,1.31 0.77,0.79 0.15,1.21 -0.44,1.48 -0.57,0.25 -0.9,0.59 -1.1,1.15 -0.23,0.67 -0.52,1.32 -1.28,1.57 -0.48,0.16 -0.36,0.7 -0.67,1.01 -0.74,0.7 -1.46,1.39 -2.47,1.67 -0.36,0.1 -0.34,0.38 -0.44,0.63 -0.29,0.79 -0.59,1.57 -1.19,2.19 -0.09,0.37 -0.21,0.73 -0.63,0.86 -0.83,0.27 -1.3,0.98 -1.86,1.57 -0.1,0.1 -0.19,0.38 -0.12,0.46 1.18,1.49 -0.42,2.13 -1.06,2.8 -0.59,0.61 -0.7,1.09 -0.41,1.68 0.38,0.76 -0.11,1.21 -0.59,1.15 -0.79,-0.12 -1.5,0.23 -2.25,0.1 -0.29,-0.24 -0.57,-0.23 -0.83,0.07 -0.1,0.31 -0.16,0.51 0.27,0.72 0.53,0.25 0.6,0.76 -0.01,1.08 -1.18,0.62 -1.42,1.07 -1.08,2.33 0.09,0.35 -0.16,0.51 -0.31,0.72 -0.14,0.21 -0.41,0.21 -0.55,0.05 -0.41,-0.47 -0.78,-0.42 -1.12,0.03 -0.33,0.46 -0.94,0.87 -0.52,1.54 0.31,0.5 0.18,0.72 -0.26,1.09 -1.05,0.9 -1.64,2.16 -2.32,3.33 -0.12,0.22 -0.21,0.57 -0.01,0.79 0.18,0.21 0.74,0.2 0.46,0.63 -0.31,0.5 -0.72,0.96 -1.25,1.25 -0.22,0.11 -0.4,-0.02 -0.47,-0.27 -0.13,-0.43 -0.46,-0.39 -0.75,-0.24 -0.3,0.15 -0.33,0.43 -0.21,0.73 0.05,0.13 0.07,0.27 0.11,0.4 0.39,1.05 0.01,1.74 -1.15,2.07 -0.04,-0.1 -0.08,-0.19 -0.1,-0.3 -0.1,-0.6 -0.18,-1.39 -0.86,-1.42 -0.86,-0.03 -1.89,1.41 -1.61,2.15 0.18,0.47 0.11,0.98 0.45,1.46 0.42,0.6 -0.27,1.14 -0.55,1.66 -0.23,0.44 -0.73,0.36 -1.13,0.16 -0.43,-0.21 -0.7,-0.19 -0.88,0.31 -0.3,0.83 -1.49,0.76 -1.71,1.73 -0.26,1.09 -0.86,2.1 -0.91,3.25 -0.01,0.35 -0.24,0.53 -0.37,0.79 -0.48,0.96 -0.8,2.01 -2.06,2.25 -0.05,1.49 -1.27,2.23 -2.06,3.26 -1.25,1.59 -2.93,2.64 -4.54,3.8 -0.31,0.22 -0.63,0.16 -0.86,-0.09 -0.78,-0.83 -1.68,-0.95 -2.74,-0.65 -0.44,0.13 -1.01,0.2 -1.03,-0.59 -0.01,-0.28 -0.26,-0.4 -0.53,-0.41 -1.74,-0.07 -2.66,-1.31 -3.52,-2.55 -0.91,-1.31 -2.04,-2.35 -3.36,-3.23 -0.53,-0.36 -0.89,-0.97 -1.29,-1.5 -0.67,-0.91 -0.78,-2.23 -2.13,-2.75 -1.28,-0.48 -1.65,-1.92 -1.16,-3.39 0.16,-0.5 0.34,-0.99 0.25,-1.53 -0.06,-0.38 0.12,-0.67 0.4,-0.92 2.32,-2.07 4.39,-4.4 6.41,-6.74 0.89,-1.03 2.08,-1.89 2.6,-3.29 0.14,-0.4 0.84,-0.64 1.19,-1.1 0.67,-0.88 1.63,-1.43 2.57,-1.97 0.46,-0.27 0.78,-0.58 0.73,-1.16 -0.03,-0.3 0.09,-0.44 0.4,-0.6 0.58,-0.29 1.18,-0.7 0.75,-1.54 -0.01,-0.03 -0.03,-0.07 -0.02,-0.1 0.06,-0.12 0.13,-0.33 0.19,-0.33 1.16,0.08 0.84,-1.65 2.01,-1.6 1.41,0.06 1.9,-1.26 2.76,-2.01 0.11,-0.1 0.07,-0.42 0.17,-0.46 1.48,-0.56 1.38,-2.33 2.4,-3.14 1.2,-0.97 1.82,-2.56 3.42,-3.07 0.27,-0.09 0.47,-0.32 0.51,-0.62 0.16,-1.11 0.74,-1.61 1.88,-1.33 0.22,0.05 0.45,-0.02 0.56,-0.21 0.92,-1.57 2.34,-2.68 3.67,-3.86 0.48,-0.19 0.56,0.01 0.43,0.43l0.01 0c0.06,0.83 -0.59,1.18 -1.09,1.63 -0.29,0.19 -0.64,0.28 -0.82,0.61 -0.26,0.49 -0.48,0.95 0.39,0.93 0.43,-0.02 0.67,0.11 0.67,0.56 1.11,0.47 1.53,0.3 2.08,-0.82z"/>
   <path class="fil28" d="M69.86 23.28c0.32,0.57 -0.86,0.9 -0.24,1.51 0.22,0.31 0.09,0.46 -0.24,0.37 -0.27,-0.07 -0.45,-0.02 -0.59,0.2 -0.35,0.22 -0.68,0.44 -1.03,0.65 -0.57,0.95 -0.58,0.97 0.5,1.21 0.21,0.05 0.34,0.13 0.51,0.28 0.82,0.75 2.2,0.35 2.14,-0.71 -0.04,-0.95 0.34,-1.22 1.02,-1.47 0.06,-0.35 0.38,-0.36 0.61,-0.5 0.6,-0.39 1.12,-0.73 1.36,-1.56 0.25,-0.83 1.26,-1.1 2.04,-1.42 0.37,-0.15 0.33,0.32 0.45,0.54 0.22,0.37 0.12,1.12 0.65,1.06 0.53,-0.06 1.23,-0.17 1.46,-0.94 0.17,-0.58 0.73,-0.91 1.15,-1.33 0.24,-0.24 0.61,-0.31 0.85,-0.03 0.41,0.48 0.8,0.27 1.21,0.05 0.23,-0.12 0.44,-0.25 0.64,0.02 0.17,0.23 0.07,0.46 -0.1,0.66 -0.14,0.16 -0.31,0.29 -0.43,0.46 -0.24,0.34 -0.33,0.78 -0.06,1.07 0.33,0.33 0.59,-0.04 0.86,-0.26 1.39,-1.14 2.52,-2.49 3.51,-3.97 0.52,-0.77 1.41,-1.04 2.38,-0.75 0.71,0.21 1.49,0.62 2.01,-0.47 0.22,-0.47 0.85,-0.56 1.4,-0.54 0.95,0.04 1.88,-0.03 2.73,-0.72 0.05,1.05 -0.09,1.9 -0.75,2.65 -0.28,0.32 -0.39,0.79 -0.03,1.15 0.75,0.74 0.12,1.25 -0.41,1.44 -0.74,0.27 -0.94,0.82 -1.27,1.4 -0.83,1.43 -1.92,2.63 -3.37,3.51 -0.76,0.46 -1.73,0.79 -1.75,1.97 -0.01,0.32 -0.27,0.63 -0.42,0.95 -0.21,0.47 -0.36,0.99 -0.87,1.25 -0.96,0.13 -1.34,1.03 -2.02,1.53 -0.13,0.1 -0.21,0.35 -0.13,0.58 0.11,0.34 0.73,0.51 0.45,0.96 -0.41,0.64 -0.79,1.44 -1.41,1.79 -0.86,0.49 -0.73,1.04 -0.52,1.72 0.09,0.28 0.45,0.6 0.09,0.82 -0.33,0.2 -0.7,0.55 -1.15,0.34 -0.8,-0.38 -1.56,0.43 -2.36,0.08 -0.15,-0.06 -0.27,0.19 -0.31,0.37 -0.08,0.29 0.14,0.36 0.34,0.42 0.3,0.09 0.5,0.26 0.46,0.59 -0.04,0.33 -0.26,0.44 -0.58,0.5 -0.58,0.09 -0.7,0.72 -1.1,1.04 -0.53,0.42 -0.14,0.87 0.14,1.28 0.2,0.28 -0.01,0.45 -0.18,0.63 -0.18,0.19 -0.45,0.34 -0.64,0.12 -0.46,-0.53 -0.84,-0.4 -1.2,0.07 -0.37,0.48 -0.94,0.94 -0.47,1.64 0.27,0.41 0.22,0.59 -0.19,0.91 -1.1,0.88 -1.71,2.16 -2.41,3.35 -0.13,0.21 -0.12,0.54 0.04,0.8 0.36,0.63 -0.2,1.82 -0.88,1.91 -0.14,0.02 -0.32,0.02 -0.36,-0.14 -0.11,-0.52 -0.44,-0.63 -0.84,-0.38 -0.43,0.27 -0.27,0.78 -0.06,1.02 0.78,0.87 0,1.39 -0.43,1.9 -0.2,0.25 -0.74,0.66 -0.94,-0.22 -0.09,-0.43 -0.09,-1.31 -0.71,-1.17 -0.6,0.14 -1.43,0.42 -1.53,1.33 -0.18,0.3 -0.24,0.6 -0.02,0.9 -0.02,0.82 0.76,1.55 0.16,2.48 -0.44,0.67 -0.83,0.99 -1.58,0.61 -0.57,-0.37 -0.7,0.04 -0.84,0.45 -0.29,0.63 -1.12,0.62 -1.43,1.18 -0.6,1.1 -0.88,2.32 -1.14,3.53 -0.09,0.37 -0.27,0.67 -0.37,0.98 -0.37,1.1 -0.92,1.93 -2.04,2.31 -0.48,1.92 -2.02,3.06 -3.26,4.42 -0.95,1.04 -2.2,1.68 -3.31,2.52 -0.27,0.2 -0.52,0.2 -0.76,-0.01 -0.91,-0.78 -1.87,-1.19 -3.07,-0.67 -0.22,0.1 -0.75,0.19 -0.76,-0.26 0,-0.92 -0.62,-0.66 -1.14,-0.78 -1.24,-0.3 -2.21,-1.18 -2.78,-2.19 -0.7,-1.26 -1.96,-1.93 -2.69,-3.1 -0.28,-0.44 -0.87,-0.36 -1.26,-0.7 -0.85,-0.76 -1.18,-1.85 -1.77,-2.77 -0.28,-0.42 -0.48,-0.8 -0.94,-1.03 -1.62,-0.83 -2.05,-1.98 -1.43,-3.71 0.04,-0.13 0.16,-0.27 0.14,-0.39 -0.3,-1.64 0.89,-2.47 1.88,-3.33 1.8,-1.57 3.24,-3.46 4.81,-5.21 0.98,-1.07 1.91,-2.29 2.84,-3.42 0.96,-1.18 2.15,-2.44 3.69,-3.1 0.49,-0.21 0.78,-0.57 0.73,-1.15 -0.03,-0.29 0.06,-0.45 0.39,-0.61 0.61,-0.28 1.13,-0.71 0.85,-1.54 -0.07,-0.21 1.69,-2 1.93,-2.01 1.5,-0.04 2.21,-1.14 2.93,-2.21 0.17,-0.25 0.35,-0.4 0.6,-0.53 0.51,-0.25 0.78,-0.58 0.92,-1.23 0.15,-0.72 0.67,-1.51 1.26,-1.94 0.97,-0.7 1.62,-1.64 2.37,-2.51 0.15,-0.18 0.36,-0.19 0.57,-0.2 0.54,-0.01 0.73,-0.35 0.78,-0.81 0.11,-1 0.65,-1.37 1.64,-1.28 1.08,0.09 1.19,-1.06 1.83,-1.55 1.07,-0.8 1.82,-1.99 3,-2.68 0.09,-0.08 0.17,-0.07 0.25,0.02z"/>
   <path class="fil29" d="M42.71 22.86c0.53,-0.6 0.94,-1.51 1.96,-0.61 0.19,0.16 0.54,0.01 0.8,-0.11 0.24,-0.1 0.5,-0.38 0.72,-0.01 0.18,0.3 -0.03,0.53 -0.24,0.73 -0.1,0.1 -0.21,0.19 -0.27,0.32 -0.16,0.35 -0.37,0.78 -0.06,1.07 0.39,0.36 0.68,-0.07 0.96,-0.33 1.28,-1.18 2.49,-2.43 3.44,-3.92 0.54,-0.85 1.58,-1.09 2.86,-0.59 0.61,0.24 0.95,0.4 1.29,-0.37 0.27,-0.57 0.94,-0.8 1.62,-0.76 0.94,0.04 1.87,0.01 2.7,-0.73 0.02,1.04 -0.04,1.89 -0.74,2.59 -0.29,0.3 -0.47,0.78 -0.11,1.15 0.87,0.92 0.04,1.35 -0.56,1.65 -0.49,0.25 -0.68,0.59 -0.93,1.01 -0.91,1.5 -1.96,2.86 -3.54,3.76 -0.66,0.38 -1.49,0.72 -1.59,1.73 -0.03,0.34 -0.12,0.77 -0.5,1 -0.5,0.37 -0.61,1.04 -1.09,1.42 -0.83,0.23 -1.14,1.09 -1.79,1.54 -0.18,0.13 -0.24,0.4 -0.17,0.67 0.08,0.34 0.71,0.44 0.43,0.85 -0.43,0.67 -0.85,1.43 -1.48,1.86 -0.74,0.53 -0.68,1.04 -0.43,1.7 0.1,0.28 0.43,0.62 0.03,0.81 -0.34,0.18 -0.65,0.77 -1.18,0.31 -0.14,-0.13 -0.37,-0.25 -0.46,-0.14 -0.57,0.63 -1.25,0.16 -1.86,0.24 -0.2,0.26 -0.56,0.53 0,0.79 0.69,0.23 0.76,0.78 0.16,0.98 -0.59,0.19 -0.75,0.67 -1.16,0.96 -0.49,0.36 -0.56,0.8 -0.17,1.26 0.31,0.36 0.19,0.61 -0.09,0.89 -0.31,0.32 -0.53,0.22 -0.77,-0.08 -0.26,-0.35 -0.57,-0.26 -0.79,0.01 -0.44,0.51 -1.15,1.02 -0.7,1.79 0.33,0.57 0.12,0.7 -0.28,1.05 -1.02,0.88 -1.65,2.08 -2.28,3.24 -0.15,0.28 -0.49,0.89 0.29,1.08 0.31,0.08 0.22,0.33 0.07,0.49 -0.33,0.36 -0.66,0.73 -1.03,1.05 -0.2,0.18 -0.51,0.2 -0.59,-0.12 -0.13,-0.52 -0.46,-0.48 -0.79,-0.32 -0.41,0.2 -0.35,0.54 -0.18,0.89 0.34,0.67 0.66,1.32 -0.15,1.94 -0.26,0.2 -0.49,0.42 -0.8,0.39 -0.33,-0.03 -0.11,-0.45 -0.26,-0.59 -0.32,-0.33 -0.05,-1.25 -0.85,-1.04 -1.09,0.27 -1.78,1.43 -1.56,2.19 0.23,0.82 0.81,1.6 0.23,2.57 -0.4,0.67 -0.88,0.93 -1.53,0.62 -0.46,-0.22 -0.62,-0.08 -0.8,0.29 -0.07,0.15 -0.15,0.36 -0.28,0.42 -1.98,0.91 -1.66,3.01 -2.45,4.54 -0.48,0.93 -0.14,2.58 -1.86,2.7 -0.25,0.03 -0.41,0.29 -0.49,0.52 -1.03,2.73 -3.25,4.42 -5.45,6.12 -0.3,0.23 -0.66,0.39 -0.96,0.63 -0.39,0.31 -0.72,0.33 -1.11,-0.01 -0.75,-0.65 -1.57,-0.95 -2.58,-0.6 -0.48,0.17 -1.08,0.26 -1.15,-0.57 -0.03,-0.24 -0.21,-0.37 -0.44,-0.39 -2.01,-0.17 -2.87,-1.75 -4,-3.11 -0.82,-0.99 -1.59,-2.09 -2.87,-2.7 -0.53,-0.25 -0.94,-0.82 -1.32,-1.41 -0.61,-0.95 -0.78,-2.25 -2.08,-2.78 -1.25,-0.52 -1.69,-1.81 -1.32,-3.16 0.02,-0.1 0.11,-0.19 0.1,-0.29 -0.09,-2.58 2.13,-3.62 3.49,-5.22 1.33,-1.57 2.84,-2.98 4.04,-4.67 0.37,-0.52 1.03,-0.9 1.39,-1.5 0.7,-1.16 1.87,-1.9 2.67,-2.98 0.36,-0.49 1.09,-0.71 1.65,-1.04 0.49,-0.3 0.96,-0.61 0.88,-1.3 -0.03,-0.27 0.11,-0.43 0.36,-0.57 0.61,-0.31 1.13,-0.68 0.89,-1.51 -0.05,-0.21 1.78,-2.1 2.02,-2.09 1.49,0.03 2.1,-1.15 2.86,-2.11 0.06,-0.08 0.07,-0.24 0.14,-0.27 1.42,-0.65 1.39,-2.45 2.46,-3.24 1.27,-0.93 1.82,-2.61 3.45,-3.12 0.27,-0.08 0.33,-0.4 0.42,-0.68 0.28,-0.85 0.65,-1.6 1.79,-1.13 0.27,0.11 0.47,-0.01 0.62,-0.24 1,-1.61 2.45,-2.76 3.86,-3.95 0.3,0.33 0.23,1.35 -0.15,1.53 -0.48,0.22 -0.8,0.65 -1.29,0.84 -0.38,0.63 -1,1.34 0.47,1.33 0.11,0 0.28,0.13 0.32,0.23 0.3,0.68 0.79,0.57 1.31,0.35 0.61,-0.27 0.99,-0.83 0.79,-1.4 -0.25,-0.7 0.08,-0.76 0.55,-0.91 0.92,-0.33 2.06,-0.74 2.29,-1.62 0.31,-1.15 1.19,-1.31 1.91,-1.82 0.45,-0.31 0.59,-0.14 0.81,0.33 0.21,0.44 0.04,1.33 1.01,1.15 0.27,-0.19 0.61,-0.3 0.8,0.02 0.19,0.3 -0.12,0.56 -0.27,0.81 -0.05,0.11 -0.16,0.24 -0.06,0.35 0.07,0.09 0.17,0.01 0.25,-0.04 0.29,-0.56 0.77,-1.05 0.45,-1.78 -0.13,-0.3 0.12,-0.58 0.3,-0.83z"/>
   <path class="fil30" d="M123.3 11.56c-0.07,1.26 -0.91,2.1 -1.7,2.86 -0.81,0.78 -1.53,1.67 -2.39,2.35 -0.59,0.46 -1.17,1.28 -2.16,1.07 -0.36,-0.09 -0.69,-0.17 -0.68,-0.64 0,-0.42 0.08,-0.78 0.58,-0.84 0.4,-0.05 0.58,-0.34 0.78,-0.64 1.24,-1.78 3.05,-3.05 4.36,-4.78 0.24,-0.3 0.66,-0.47 0.92,-0.39 0.49,0.15 0.08,0.68 0.29,1.01z"/>
   <path class="fil16" d="M87.09 11.57c0,1.27 -0.88,2.07 -1.62,2.81 -0.81,0.81 -1.57,1.72 -2.46,2.42 -0.6,0.46 -1.23,1.3 -2.23,1 -0.65,-0.2 -0.8,-0.94 -0.26,-1.34 1.8,-1.31 3.04,-3.19 4.68,-4.67 0.2,-0.19 0.41,-0.38 0.56,-0.61 0.27,-0.4 0.63,-0.78 1.09,-0.63 0.45,0.16 0.04,0.71 0.24,1.02z"/>
   <path class="fil31" d="M50.92 12.48c-0.01,1.21 -0.83,2.11 -1.63,2.78 -0.83,0.69 -1.55,1.48 -2.25,2.24 -0.53,0.6 -1.53,0.51 -1.82,1.39 -0.02,0.08 -0.87,-0.12 -1.13,-0.49 -0.21,-0.28 -0.16,-0.72 0.18,-0.94 1.64,-1.08 2.6,-2.84 4.08,-4.09 0.48,-0.4 0.92,-0.87 1.27,-1.38 0.28,-0.39 0.67,-0.67 1.03,-0.57 0.48,0.12 0.07,0.68 0.27,1.06z"/>
   <path class="fil1" d="M42.92 17.03c-0.24,0.53 -0.4,0.95 -0.62,1.33 -0.45,0.81 -1.04,0.73 -1.67,0.11 -0.79,-0.76 -0.97,-1.6 -0.86,-2.59 0.09,-0.81 0.53,-1.02 1.18,-0.55 0.23,0.17 0.45,0.19 0.69,0.18 0.5,-0.02 0.76,0.1 0.47,0.66 -0.42,0.79 -0.15,1.1 0.81,0.86z"/>
   <path class="fil32" d="M115.19 16.22c-0.19,0.45 -0.34,0.88 -0.55,1.27 -0.41,0.74 -1.05,0.66 -1.67,0.09 -0.81,-0.75 -0.99,-1.6 -0.85,-2.59 0.11,-0.84 0.48,-0.99 1.2,-0.55 0.14,0.08 0.31,0.17 0.47,0.16 0.73,-0.03 0.95,0.14 0.57,0.89 -0.43,0.85 0.28,0.75 0.83,0.73z"/>
   <path class="fil33" d="M79.13 16.25c-0.6,0.52 -0.46,1.31 -1.08,1.63 -0.24,0.13 -0.45,0.36 -0.76,0.24 -0.88,-0.36 -1.73,-2.59 -1.28,-3.47 0.2,-0.39 0.51,-0.8 1.01,-0.3 0.22,0.22 0.48,0.26 0.76,0.25 0.64,-0.04 0.66,0.22 0.46,0.75 -0.3,0.81 -0.2,0.89 0.89,0.9z"/>
   <path class="fil34" d="M73.86 21.39c-0.32,0.53 -1.54,0.87 -1.96,0.53 -0.18,-0.14 -0.14,-0.39 0,-0.43 1.29,-0.37 0.72,-1.46 0.78,-2.22 0.05,-0.61 0.17,-0.92 0.73,-0.78 0.54,0.13 1.1,-0.8 1.49,-0.07 0.42,0.8 -0.63,0.81 -0.96,1.23 -0.3,0.4 -0.42,0.7 -0.09,1.1 0.18,0.21 0.14,0.43 0.01,0.64z"/>
   <path class="fil35" d="M109.8 19.9c0.01,0.14 -0.02,0.32 0.05,0.41 0.39,0.51 0.44,1.07 0.01,1.49 -0.5,0.5 -1.2,0.17 -1.8,0.17 -0.32,0 -0.3,-0.33 -0.11,-0.42 1.14,-0.58 0.8,-1.62 0.86,-2.55 0,-0.11 0.12,-0.23 0.18,-0.35 0.3,0.19 0.39,0.49 0.37,0.8 -0.02,0.34 0.22,0.38 0.44,0.45z"/>
   <path class="fil36" d="M36.64 21.37c-0.01,-0.21 -0.04,-0.42 -0.04,-0.62 0.01,-1.24 0.54,-1.72 1.78,-1.66 0.2,0.01 0.34,0.1 0.42,0.26 0.12,0.22 0.01,0.39 -0.18,0.52 -0.38,0.3 -0.76,0.6 -1.14,0.9 -0.28,0.2 -0.16,0.95 -0.84,0.6z"/>
   <path class="fil37" d="M71.93 25.32c-0.69,0.41 -0.85,1.06 -0.98,1.81 -0.14,0.9 -1.46,1.29 -2.13,0.66 -0.23,-0.22 -0.42,-0.41 -0.75,-0.47 -0.32,-0.05 -0.79,0.04 -0.86,-0.4 -0.07,-0.4 0.16,-0.73 0.55,-0.9 -0.23,0.58 -0.52,1.18 0.57,1.08 0.22,-0.03 0.38,0.08 0.51,0.29 0.33,0.52 0.86,0.42 1.31,0.24 0.45,-0.18 0.82,-0.71 0.7,-1.06 -0.42,-1.18 0.34,-1.17 1.08,-1.25z"/>
   <path class="fil38" d="M31.78 26.68c0.51,-0.69 1.61,-0.91 1.6,-2.02 0,-0.16 -0.04,-0.26 -0.16,-0.34 0.24,-0.37 0.82,-0.49 0.77,-1.04 -0.03,-0.38 0.17,-0.39 0.43,-0.39 0.18,0.01 0.37,0 0.46,0.18 0.15,0.29 -0.1,0.44 -0.26,0.62 -0.36,0.41 -1.09,0.5 -1.08,1.23 0,0.04 -0.04,0.08 -0.04,0.1 0.36,1.52 -1.09,1.17 -1.72,1.66z"/>
   <path class="fil39" d="M36.64 21.37c0.48,0.06 0.52,-0.46 0.84,-0.6 -0.06,0.3 0,0.57 0.19,0.81 0.18,0.22 0.12,0.45 0.03,0.68 -0.04,0.15 -0.05,0.32 -0.26,0.36 -0.14,-0.1 -0.16,-0.27 -0.22,-0.4 -0.09,0.13 -0.17,0.3 -0.38,0.31 0.05,0.18 0.31,0.13 0.35,0.31 -0.49,0.52 -0.96,-0.02 -1.44,-0.06 -0.3,-0.02 -0.2,-0.38 0.02,-0.54 0.35,-0.24 0.69,-0.47 0.87,-0.87z"/>
   <path class="fil40" d="M109.8 19.9c-0.24,0.08 -0.39,0.5 -0.68,0.3 -0.24,-0.15 0.02,-0.43 0.02,-0.65 0,-0.3 -0.09,-0.59 -0.15,-0.9l0 0c0.53,-0.25 1.21,0.09 1.69,-0.39 0.21,0.05 0.35,0.19 0.44,0.38 -0.15,0.28 -0.39,0.48 -0.67,0.61 -0.22,0.22 -0.43,0.43 -0.65,0.65z"/>
   <path class="fil41" d="M41.45 25.17c0.07,-0.3 0.5,-0.41 0.43,-0.74 -0.02,-0.08 -0.42,-0.07 -0.65,-0.1 0.68,-0.3 1.05,-0.92 1.48,-1.47 -0.06,0.44 -0.26,0.8 0.13,1.33 0.23,0.32 -0.49,1.05 -0.8,1.59 -0.24,-0.17 -0.02,-0.77 -0.59,-0.61z"/>
   <path class="fil42" d="M105.85 23.92c-0.03,-0.27 -0.16,-0.43 -0.44,-0.43 0.4,-0.43 1.15,-0.68 0.69,-1.67 0.46,0.25 1.02,0.02 1.13,0.52 0.09,0.4 -0.33,0.69 -0.67,0.85 -0.34,0.17 -0.38,0.59 -0.71,0.73z"/>
   <path class="fil43" d="M122.66 30.64c0.24,-0.47 0.64,-0.49 1.06,-0.33 0.17,0.05 0.13,0.24 0.05,0.34 -0.3,0.37 -0.44,0.94 -0.97,1.02 -0.42,0.05 -0.32,-0.36 -0.36,-0.61 -0.01,-0.19 0.08,-0.32 0.22,-0.42z"/>
   <path class="fil44" d="M91.04 26.75c-0.28,0.04 -0.35,-0.11 -0.34,-0.3 0.06,-0.58 0.41,-0.92 0.96,-1.06 0.21,-0.04 0.48,0.01 0.39,0.3 -0.16,0.52 -0.58,0.83 -1.01,1.06z"/>
   <path class="fil45" d="M128.27 25.65c-0.26,0.44 -0.58,0.87 -1.08,1.07 -0.29,0.11 -0.34,-0.15 -0.32,-0.37 0.07,-0.64 0.58,-0.82 1.07,-1.02 0.19,-0.08 0.29,0.1 0.33,0.32z"/>
   <path class="fil46" d="M50.42 32.64c-0.33,-0.12 -0.38,-0.36 -0.33,-0.6 0.12,-0.55 0.52,-0.78 1.03,-0.87 0.19,-0.03 0.4,0.09 0.31,0.26 -0.24,0.48 -0.53,0.96 -1.01,1.21z"/>
   <path class="fil34" d="M87.12 30.23c0.19,0.03 0.57,-0.03 0.49,0.2 -0.14,0.49 -0.43,1.01 -0.9,1.21 -0.48,0.21 -0.4,-0.29 -0.45,-0.59 -0.02,-0.59 0.43,-0.69 0.86,-0.82z"/>
   <path class="fil47" d="M69.86 23.28c-0.08,-0.01 -0.17,-0.02 -0.25,-0.02 0.34,-0.37 0.65,-0.75 0.3,-1.53 0.46,0.39 1.14,0.11 1.14,0.61 -0.01,0.6 -0.55,0.94 -1.19,0.94z"/>
   <path class="fil48" d="M54.87 27.66c-0.3,-0.06 -0.35,-0.17 -0.3,-0.39 0.13,-0.55 0.42,-0.94 1,-1.01 0.17,-0.03 0.32,0.14 0.27,0.35 -0.14,0.55 -0.65,0.75 -0.97,1.05z"/>
   <path class="fil49" d="M131.42 24.99c0,-0.36 0.19,-0.54 0.42,-0.58 0.36,-0.05 0.6,0.22 0.63,0.54 0.03,0.27 -0.11,0.59 -0.43,0.6 -0.4,0.03 -0.38,-0.44 -0.62,-0.56z"/>
   <path class="fil50" d="M95.72 24.4c0.29,0.05 0.53,0.24 0.56,0.52 0.04,0.26 -0.08,0.59 -0.4,0.62 -0.41,0.05 -0.48,-0.33 -0.54,-0.62 -0.05,-0.26 0.09,-0.45 0.38,-0.52z"/>
   <path class="fil51" d="M107.08 26.83c-0.25,0.31 0.29,1.02 -0.45,1.05 -0.54,0.02 -1.21,0.69 -1.63,-0.22 0.9,0.25 1.59,-0.04 2.08,-0.83z"/>
   <path class="fil52" d="M129.89 28.08c-0.2,0.29 -0.41,0.63 -0.8,0.7 -0.14,0.03 -0.29,-0.29 -0.25,-0.48 0.09,-0.36 0.34,-0.59 0.73,-0.57 0.17,0.01 0.33,0.1 0.32,0.35z"/>
   <path class="fil53" d="M59.57 25.39c0.31,0.02 0.55,0.16 0.56,0.49 0.02,0.26 -0.12,0.52 -0.41,0.49 -0.34,-0.04 -0.54,-0.3 -0.57,-0.64 -0.02,-0.28 0.19,-0.33 0.42,-0.34z"/>
   <path class="fil54" d="M104.76 25.55c0.04,-0.17 0.05,-0.47 0.11,-0.48 0.68,-0.09 0.72,-0.71 0.98,-1.15 0,0.14 -0.06,0.29 -0.01,0.41 0.32,0.75 0.12,1.11 -0.73,1.03 -0.12,-0.01 -0.23,0.13 -0.35,0.19z"/>
   <path class="fil55" d="M93.68 28.09c-0.18,0.25 -0.34,0.56 -0.68,0.56 -0.28,0.01 -0.23,-0.28 -0.2,-0.47 0.04,-0.34 0.29,-0.46 0.59,-0.43 0.17,0.02 0.33,0.11 0.29,0.34z"/>
   <path class="fil56" d="M87.12 30.23c-0.29,0.28 -0.57,0.55 -0.86,0.82 -0.16,-0.01 -0.32,-0.02 -0.48,-0.04 0.21,-0.47 0.39,-0.97 0.87,-1.25 0.03,0.28 0.18,0.45 0.47,0.47z"/>
   <path class="fil57" d="M37.19 22.84c-0.26,-0.08 -0.52,-0.15 -0.77,-0.23 0.5,-0.07 0.61,-0.55 0.85,-0.91 0.29,0.32 0.14,0.64 0.17,0.92 -0.09,0.07 -0.17,0.15 -0.25,0.22z"/>
   <path class="fil58" d="M56.69 29.68c-0.24,-0.82 0.05,-1.06 0.83,-0.88 -0.12,0.45 -0.44,0.66 -0.83,0.88z"/>
   <path class="fil46" d="M49.43 31.86c0.27,-0.55 0.43,-1.17 1.09,-1.42 -0.32,0.5 -0.35,1.23 -1.09,1.42z"/>
   <path class="fil59" d="M37.7 22.26c-0.01,-0.23 -0.02,-0.45 -0.03,-0.68 0.17,0.01 0.34,0.01 0.51,0.02 0.2,0.01 0.47,-0.01 0.48,0.25 0.02,0.49 -0.35,0.09 -0.51,0.18 -0.15,0.08 -0.3,0.15 -0.45,0.23z"/>
   <path class="fil60" d="M114.85 22.19c0.13,0.81 -0.2,1.19 -1.04,1.08 0.61,-0.11 0.64,-0.77 1.04,-1.08z"/>
   <path class="fil61" d="M73.86 21.39c0,-0.21 -0.01,-0.43 -0.01,-0.64 0.31,0.06 0.67,-0.14 0.98,0.2 -0.24,0.36 -0.72,0.17 -0.97,0.44z"/>
   <path class="fil62" d="M68.79 25.36c-0.08,-0.71 0.79,-0.03 0.83,-0.57 0.43,0.3 0.31,0.48 -0.13,0.55 -0.23,0.04 -0.47,0.02 -0.7,0.02z"/>
   <path class="fil35" d="M110.67 18.25c-0.43,0.66 -1.11,0.32 -1.68,0.41 0.51,-0.35 1.14,-0.19 1.68,-0.41z"/>
   <path class="fil63" d="M122.66 30.64c0.01,0.18 -0.06,0.33 -0.22,0.42 -0.22,-0.01 -0.43,-0.01 -0.64,-0.01 0.21,-0.29 0.42,-0.58 0.63,-0.86 0.04,0.17 0.05,0.36 0.23,0.45z"/>
   <path class="fil64" d="M64.6 59.24c-0.04,-0.29 -0.03,-0.58 0.26,-0.73 0.29,-0.16 0.44,0.07 0.58,0.28 -0.4,-0.06 -0.63,0.18 -0.84,0.45z"/>
   <path class="fil65" d="M114.68 38.88c0.24,-0.49 0.51,-0.72 0.84,-0.06 -0.28,0.02 -0.56,0.04 -0.84,0.06z"/>
   <path class="fil66" d="M66.86 55.7c-0.74,-0.32 -0.27,-0.61 0.02,-0.9 0,0.3 -0.01,0.6 -0.02,0.9z"/>
   <path class="fil67" d="M42.52 40.49c-0.18,0.02 -0.37,0.03 -0.41,-0.18 -0.07,-0.33 0.13,-0.51 0.41,-0.61 -0.03,0.26 -0.22,0.53 0,0.79z"/>
   <path class="fil35" d="M110.45 19.25c0.17,-0.26 0.38,-0.48 0.67,-0.61 0.04,0.5 -0.3,0.57 -0.67,0.61z"/>
   <path class="fil27" d="M107.89 30.1c-0.08,-1.02 0.66,-1.6 1.12,-2.31 0.13,-0.19 0.37,-0.38 0.62,-0.15 0.25,0.22 0.11,0.45 -0.06,0.64 -0.56,0.61 -0.67,1.13 0.07,1.77 0.42,0.37 0.71,0.31 1.11,0.14 0.16,-0.07 0.33,-0.19 0.47,0.01 0.12,0.18 0.01,0.33 -0.15,0.43 -0.3,0.18 -0.5,0.45 -0.4,0.78 0.34,1.14 -0.68,1.14 -1.25,1.5 -0.27,0.17 -0.61,-0.07 -0.69,-0.31 -0.3,-0.84 -0.97,-1.57 -0.84,-2.5z"/>
   <path class="fil27" d="M113.07 28.88c-0.37,-0.01 -0.42,-0.36 -0.28,-0.5 0.59,-0.65 0.44,-1.89 1.73,-1.98 0.56,-0.04 0.64,-0.78 1.01,-1.13 0.18,-0.17 0.36,-0.37 0.62,-0.14 0.2,0.18 0.16,0.39 0.01,0.56 -0.96,1.04 -1.93,2.07 -2.9,3.1 -0.04,0.05 -0.12,0.06 -0.19,0.09z"/>
   <path class="fil60" d="M114.22 24.92c-0.2,0.36 -0.45,0.28 -0.67,0.04 -0.22,-0.26 -0.17,-0.55 0.1,-0.72 0.52,-0.31 0.91,-0.84 1.67,-1.06 -0.34,0.58 -0.62,1.06 -0.91,1.54 -0.22,-0.08 -0.28,-0.02 -0.19,0.2z"/>
   <path class="fil68" d="M114.22 24.92c-0.21,0 -0.44,0.02 -0.48,-0.25 -0.02,-0.2 0.15,-0.3 0.33,-0.32 0.28,-0.04 0.33,0.14 0.34,0.37 -0.06,0.07 -0.13,0.13 -0.19,0.2z"/>
   <path class="fil28" d="M74.5 30.88c-0.11,0.75 0.32,1.65 -0.97,1.94 -0.46,0.11 -0.7,0.11 -0.93,-0.16 -1.3,-1.49 -1.19,-3.54 0.23,-4.87 0.18,-0.17 0.36,-0.4 0.62,-0.17 0.24,0.21 0.14,0.44 -0.03,0.64 -0.5,0.58 -0.85,1.16 0.02,1.72 0.12,0.31 0.36,0.35 0.65,0.35 0.38,0 0.6,0.13 0.41,0.55z"/>
   <path class="fil28" d="M76.86 28.96c-0.5,-0.11 -0.47,-0.53 -0.26,-0.72 0.63,-0.58 0.51,-1.8 1.75,-1.88 0.53,-0.03 0.66,-0.77 1.03,-1.13 0.17,-0.15 0.34,-0.29 0.56,-0.14 0.24,0.17 0.27,0.43 0.09,0.64 -0.89,1.11 -2.12,1.91 -2.91,3.13 -0.04,0.06 -0.18,0.07 -0.26,0.1z"/>
   <path class="fil69" d="M74.5 30.88c-0.04,-0.32 -0.23,-0.45 -0.55,-0.44 -0.3,0 -0.52,-0.11 -0.51,-0.46 0.28,0.23 0.59,0.31 0.95,0.23 0.26,-0.05 0.64,-0.43 0.77,0.05 0.12,0.42 -0.36,0.49 -0.66,0.62z"/>
   <path class="fil70" d="M77.64 24.33c0.25,-0.2 0.51,-0.41 0.95,-0.75 -0.17,0.67 0.05,1.29 -0.75,1.37 -0.13,-0.18 -0.12,-0.41 -0.2,-0.62z"/>
   <path class="fil71" d="M77.64 24.33c0.54,0.06 0.37,0.34 0.2,0.62 -0.5,-0.06 -0.59,-0.26 -0.2,-0.62z"/>
   <path class="fil29" d="M38.31 31.92c0.33,1.06 -0.31,1.52 -1.13,1.88 -0.43,0.18 -0.69,-0.08 -0.88,-0.35 -1.1,-1.54 -1.05,-3.1 0.14,-4.56 0.21,-0.25 0.47,-0.65 0.85,-0.36 0.34,0.27 0.02,0.54 -0.15,0.8 -0.68,1.04 -0.68,1.04 0.7,1.91 0.72,-0.16 0.64,0.23 0.47,0.68z"/>
   <path class="fil29" d="M43.95 26.34c-0.04,0.3 -0.27,0.47 -0.46,0.68 -0.73,0.82 -1.67,1.46 -2.26,2.44 -0.16,0.27 -0.45,0.5 -0.78,0.25 -0.31,-0.22 -0.07,-0.51 0.05,-0.74 0.23,-0.48 0.86,-0.76 0.74,-1.42 1.12,-0.04 1.56,-1.01 2.27,-1.64 0.18,-0.15 0.42,0.14 0.44,0.43z"/>
   <path class="fil29" d="M38.31 31.92c-0.02,-0.32 -0.04,-0.63 -0.47,-0.68 0.12,-0.06 0.23,-0.15 0.36,-0.17 0.27,-0.06 0.6,-0.38 0.8,0.03 0.21,0.4 -0.2,0.49 -0.44,0.64 -0.09,0.06 -0.17,0.12 -0.25,0.18z"/>
   <path class="fil29" d="M41.45 25.17c0.64,-0.23 0.7,0.11 0.59,0.61 -0.21,0.09 -0.43,0.28 -0.66,0.04 -0.24,-0.23 -0.04,-0.44 0.07,-0.65z"/>
  </g>
 </g>
</svg>
